# xmcd
#
# Track frame offsets: 
#        150
#        17437
#        48287
#        69767
#        84080
#        98370
#        113770
#        148547
#        180195
#        192972
#        224592
#        271770
#
# Disc length: 3964 seconds
#
# Revision: 5
# Processed by: cddbd v1.5.2PL0 Copyright (c) Steve Scherf et al.
# Submitted via: ExactAudioCopy v1.0b3
#
DISCID=8a0f7a0c
DTITLE=Johann Sebastian Bach - Violin Concertos - Scottish Ensemble
DYEAR=1991
DGENRE=Classical
TTITLE0=Concerto for 2 Violins in D Minor, BWV 1043: Vivace
TTITLE1=Concerto for 2 Violins in D-Minorl, BWV 1043: Largo ma non tan
TTITLE1=to
TTITLE2=Concerto for 2 Violins in D-Minorl, BWV 1043: Allegro
TTITLE3=Concerto for Violin in G-Minor: Moderato
TTITLE4=Concerto for Violin in G-Minor: Largo
TTITLE5=Concerto for Violin in G-Minor: Presto
TTITLE6=Concerto for Violin in E-Major, BWV 1042: Allegro
TTITLE7=Concerto for Violin in E-Major, BWV 1042: Adagio
TTITLE8=Concerto for Violin in E-Major, BWV 1042: Allegro assai
TTITLE9=CPE Bach - Concerto for Cello A-Major: Allegro
TTITLE10=CPE Bach - Concerto for Cello A-Major: Largo
TTITLE11=CPE Bach - Concerto for Cello A-Major: Allegro assai
EXTD=Jonathan Rees, Violine
EXTT0=
EXTT1=
EXTT2=
EXTT3=
EXTT4=
EXTT5=
EXTT6=
EXTT7=
EXTT8=
EXTT9=
EXTT10=
EXTT11=
PLAYORDER=
